<svg xmlns="http://www.w3.org/2000/svg" aria-hidden="true" style="width:0;height:0;position:absolute;overflow:hidden"><defs><symbol id="modal-close" viewBox="0 0 32 32"><path d="m17.253 15.751 7.369-7.317a.875.875 0 0 0-.047-1.198.893.893 0 0 0-1.206-.046L16 14.507 8.631 7.181a.896.896 0 0 0-1.262 0 .885.885 0 0 0 0 1.254l7.378 7.317-7.378 7.317a.873.873 0 0 0-.249.992.883.883 0 0 0 .503.5.896.896 0 0 0 1-.247l7.378-7.317 7.369 7.317a.894.894 0 0 0 1.206-.046.875.875 0 0 0 .047-1.198l-7.369-7.317z"/></symbol><symbol id="menu" viewBox="0 0 32 32"><path d="M26.733 14H5.266c-.7 0-1.267.425-1.267.95v.1c0 .525.567.95 1.267.95h21.467c.7 0 1.267-.425 1.267-.95v-.1c0-.525-.567-.95-1.267-.95zm0 6H5.266c-.7 0-1.267.425-1.267.95v.1c0 .525.567.95 1.267.95h21.467c.7 0 1.267-.425 1.267-.95v-.1c0-.525-.567-.95-1.267-.95zm0-12H5.266c-.7 0-1.267.425-1.267.95v.1c0 .525.567.95 1.267.95h21.467c.7 0 1.267-.425 1.267-.95v-.1c0-.525-.567-.95-1.267-.95z"/></symbol><symbol id="menu-close" viewBox="0 0 32 32"><path d="M23.884 6.706 16 14.59 8.116 6.706a.995.995 0 0 0-1.38.031 1 1 0 0 0-.031 1.38l7.88 7.884-7.882 7.882a1.002 1.002 0 0 0-.018 1.427.998.998 0 0 0 1.427-.015l7.886-7.882 7.884 7.884a1 1 0 0 0 1.38-.03 1 1 0 0 0 .03-1.38l-7.884-7.884 7.884-7.886a1.002 1.002 0 0 0 .018-1.427.998.998 0 0 0-1.427.015v.002z"/></symbol><symbol id="long-arrow" viewBox="0 0 82 32"><path d="M81.414 17.414a2 2 0 0 0 0-2.828L68.686 1.858a2 2 0 1 0-2.828 2.828L77.172 16 65.858 27.314a2 2 0 1 0 2.828 2.828l12.728-12.728zM0 18h80v-4H0v4z"/></symbol><symbol id="facebook" viewBox="0 0 16 32"><path d="M14.143 15.972h-4.034v14.865H3.997V15.972H1.09v-5.224h2.907V7.367c0-2.418 1.142-6.203 6.166-6.203l4.527.019v5.071h-3.285c-.539 0-1.296.271-1.296 1.424v3.075h4.567l-.534 5.219z"/></symbol><symbol id="telegram" viewBox="0 0 44 32"><path d="m17.346 21.048-.675 8.86c.966 0 1.384-.387 1.885-.852l4.527-4.038 9.381 6.412c1.72.895 2.933.424 3.397-1.477l6.158-26.929.002-.002c.546-2.374-.92-3.302-2.596-2.72L3.231 13.235c-2.47.895-2.433 2.18-.42 2.762l9.253 2.686L33.558 6.131c1.011-.625 1.931-.279 1.175.346l-17.386 14.57z"/></symbol><symbol id="github" viewBox="0 0 32 32"><path d="M16 0C7.212 0 0 7.212 0 16c0 7.499 5.262 14.312 12.25 16v-5.293c-.692.152-1.33.156-2.034-.052-.946-.279-1.714-.909-2.284-1.869-.364-.613-1.008-1.278-1.68-1.23l-.165-1.868c1.453-.124 2.711.886 3.457 2.14.332.558.713.884 1.203 1.029.473.14.982.072 1.574-.137.149-1.186.692-1.63 1.102-2.255v-.001c-4.167-.622-5.828-2.832-6.488-4.578-.874-2.317-.405-5.212 1.14-7.041.03-.036.084-.129.063-.194-.708-2.139.155-3.909.187-4.097.817.242.95-.243 3.551 1.337l.449.27c.188.112.129.048.317.034A13.544 13.544 0 0 1 16 7.723c1.136.015 2.273.178 3.404.484l.145.015c-.013-.002.04-.009.127-.062 3.248-1.968 3.132-1.324 4.003-1.608.032.188.883 1.987.182 4.099-.095.291 2.816 2.956 1.203 7.235-.659 1.746-2.32 3.957-6.487 4.578v.001c.534.814 1.176 1.247 1.173 2.927V32C26.738 30.312 32 23.499 32 16c0-8.788-7.212-16-16-16z"/></symbol><symbol id="arrow" viewBox="0 0 32 32"><path d="M8.51 3.254C8.184 3.63 8 4.14 8 4.671s.183 1.041.51 1.417l8.62 9.924-8.62 9.924c-.317.378-.493.884-.489 1.41s.187 1.029.51 1.4.76.583 1.216.587c.457.005.896-.198 1.225-.563l9.851-11.341c.326-.376.51-.886.51-1.417s-.183-1.041-.51-1.417L10.972 3.254c-.327-.376-.769-.587-1.231-.587s-.905.211-1.231.587z"/></symbol><symbol id="icon-logo" viewBox="0 0 34 32"><path d="M17.184 14.109c1.613-4.366-1.728-6.756-3.942-8.327-.424-.321-.847-.621-1.19-.895A4.17 4.17 0 0 1 10.726.546l-.007.029a.458.458 0 0 0-.348-.566l-.003-.001a.46.46 0 0 0-.249.019l.003-.001a7.497 7.497 0 0 0-2.064 1.23l.011-.009a4.867 4.867 0 0 0-1.901 3.846v.001a5.607 5.607 0 0 0-1.096 1.144 4.158 4.158 0 0 0-.808 2.691v-.01a5.3 5.3 0 0 0-1.608 5.021l-.006-.035a1.438 1.438 0 0 0-.638 1.629l-.002-.01a1.44 1.44 0 0 0 1.382 1.046h.042v2.485a.95.95 0 0 0 .949.949h.745l1.208 10.429a.947.947 0 0 0 .94.845H12.301a.96.96 0 0 0 .949-.84v-.005l1.207-10.429h.741a.953.953 0 0 0 .952-.95V16.57h.029a1.446 1.446 0 0 0 1.333-2.005l.004.01a1.401 1.401 0 0 0-.316-.47l-.013.004zM6.315 6.188c.61 2.285 2.964 3.183 5.111 3.987a.461.461 0 1 0 .329-.844h-.003C9.44 8.456 7.259 7.642 7.095 5.307A3.891 3.891 0 0 1 8.63 1.966l.01-.007a6.926 6.926 0 0 1 1.033-.709 5.387 5.387 0 0 0 .001.898l-.001-.02a4.996 4.996 0 0 0 1.779 3.468l.008.006c.351.3.787.608 1.27.937 1.114.798 2.38 1.689 3.184 2.897.503.717.803 1.607.803 2.568a4.48 4.48 0 0 1-.352 1.748l.011-.03h-1.871c-3.858 0-8.291-1.064-9.167-4.045a3.399 3.399 0 0 1 .996-3.464l.003-.003-.02-.021zm3.472 14.395 1.415 1.41-1.415 1.411-1.415-1.419 1.415-1.401zm3.243 3.702-1.168 1.165-1.415-1.411 1.415-1.406 1.228 1.221-.059.43zM9.787 27.52l-1.415-1.411 1.415-1.41 1.415 1.41-1.415 1.411zm-.648-3.471L7.725 25.46l-1.176-1.174-.051-.422 1.227-1.221 1.415 1.406zm-2.065 2.06-.284.283-.072-.642.355.359zm-.149 1.445.8-.798 1.555 1.563a.829.829 0 0 0 .029.093H7.022l-.098-.857zm4.929-.799.8.798-.098.845h-2.349l1.647-1.642zm.932-.362-.284-.284.36-.359-.076.642zm.422-3.691-.707-.718.899-.895-.19 1.613zm-1.358-1.36-1.342-1.334h2.684l-1.341 1.334zm-4.129 0-1.343-1.334h2.685l-1.342 1.334zm4.573 9.019H7.276c-.015-.002-.028-.014-.029-.029l-.118-1.013h5.318l-.115 1.013a.033.033 0 0 1-.033.029h-.005zm3.883-14.71h-1.474a.463.463 0 0 0-.505.458v.001a.46.46 0 0 0 .507.458h-.002.525v2.483a.033.033 0 0 1-.033.029H4.367a.033.033 0 0 1-.033-.029v-2.483h8.387a.462.462 0 0 0 .298-.767.46.46 0 0 0-.296-.149H3.406a.527.527 0 0 1-.572-.522v-.002a.522.522 0 0 1 .575-.519h-.002.961a.46.46 0 0 0 .002-.915h-.848a4.5 4.5 0 0 1 .929-3.683l-.007.008c.296.92 1.059 2.179 2.964 3.18 1.79.933 4.162 1.41 7.045 1.41h1.693a.528.528 0 0 1 .526.307l.001.003a.522.522 0 0 1-.53.732h.031zm3.682 12.741-.342.525.008.004.335-.529zm3.681.176.627-.013-.017-.724-.714.12.105.617zm.043 1.927.16.606.477-.126-.011-.493-.627.013zm-4.831.093.141-.611h-.004l-.136.611zm-2.385-1.065zm-.862-1.958.626.003v-.003h-.626zm.299-1.369-.562-.277v.002l.562.275zm1.92-1.639.223.586.002-.001-.224-.585zm6.153-.16.624.049.042-.529-.515-.127-.151.607zm-.153 1.964-.116.615.686.131.055-.697-.625-.048zm-1.669-.803c-.94 0-1.731.1-2.307.354-.296.13-.564.313-.76.572a1.46 1.46 0 0 0-.299.89v.016-.001h1.253c0-.073.017-.115.044-.149a.677.677 0 0 1 .267-.181c.337-.148.916-.248 1.802-.248v-1.253zm-3.367 1.831c0 .644.289 1.176.829 1.528l.683-1.049a.51.51 0 0 1-.259-.478h-1.253zm.836 1.532c.511.323 1.187.445 1.944.445v-1.253c-.654 0-1.052-.11-1.274-.251l-.669 1.058zm1.944.446c.743 0 1.469-.061 2.178-.18l-.21-1.235c-.585.103-1.259.163-1.947.163h-.022.001v1.253zm1.447-.784.042 1.927 1.253-.028-.043-1.927-1.252.028zm.509 1.307a9.28 9.28 0 0 1-2.372.285v1.252c.96 0 1.858-.107 2.691-.327l-.319-1.211zm-2.371.285c-.884 0-1.6-.07-2.159-.199l-.281 1.221c.681.157 1.499.23 2.44.23v-1.252zm-2.164-.199c-.598-.133-1.029-.275-1.317-.416l-.55 1.125c.413.202.952.371 1.594.514l.273-1.223zm-1.317-.416a3.84 3.84 0 0 1-.806-.518l.006.005-.81.955c.313.265.668.493 1.061.684l.549-1.125zm-.8-.515c-.426-.36-.644-.83-.64-1.476l-1.253-.006c-.005.985.352 1.819 1.085 2.438l.808-.957zm-.64-1.48c0-.421.082-.781.236-1.095l-1.126-.551a3.64 3.64 0 0 0-.364 1.6v.048-.002h1.252zm.235-1.093c.285-.579.788-1.029 1.581-1.331l-.445-1.171c-1.034.392-1.811 1.036-2.26 1.948l1.124.553zm1.583-1.33c.833-.32 1.763-.485 2.796-.485v-1.252c-1.168 0-2.252.186-3.245.568l.45 1.17zm2.796-.485c1.054 0 2.047.118 2.981.349l.301-1.215a13.27 13.27 0 0 0-3.216-.386h-.069.004v1.253zm2.507-.308-.152 1.963 1.249.098.152-1.964-1.248-.097zm.589 1.397a9.48 9.48 0 0 0-1.78-.189h-.006v1.253c.44 0 .957.053 1.553.166l.233-1.229zm6.11 1-.003.627.637.003-.007-.637-.627.007zm-.269-.813-.426.459.006.005.421-.463zm-1.559.061.434.452.004-.005-.438-.447zm-.379.74-.618-.101-.12.723.733.004.003-.627zm4.604 3.339.379.499.225-.171.021-.281-.625-.047zm-1.351.502-.135-.612-.003.001.138.611zm-4.697-.172-.213.589.005.002.208-.591zm-1.07-.568-.389.491.008.006.381-.497zm-.716-.899-.562.278.002.003.56-.28zm.734-3.798zm5.724-.679.25-.574-.006-.003-.244.577zm1.437 1.321-.563.274.002.003.561-.278zm.245 1.095.625.045.002-.023v-.023h-.627zm-.073 1.009-.003.627.585.003.042-.584-.624-.045zm-4.96-.025.003-.627-.817-.003.208.79.605-.16zm.71.875-.309.545.003.002.306-.547zm3.804-.214v-.626h-.125l-.115.048.241.578zm.33 0 .625.047.051-.674h-.675v.627zm-1.887-1.781c-.005-.453-.109-.939-.475-1.271l-.842.928c-.007-.007.008.002.025.056.019.057.037.153.039.301l1.253-.013zm-.47-1.265c-.328-.305-.76-.406-1.185-.406v1.253c.244 0 .318.059.333.071l.852-.918zm-1.184-.406c-.467 0-.9.147-1.24.479l.877.894c.068-.067.168-.12.362-.12v-1.253zm-1.236.474a1.901 1.901 0 0 0-.562 1.08l-.001.011 1.236.203a.66.66 0 0 1 .195-.39l-.867-.904zm.052 1.819 2.208.012.007-1.252-2.208-.013-.007 1.252zm4.23 2.214c-.137.104-.472.248-1.108.388l.269 1.224c.661-.146 1.227-.335 1.595-.615l-.756-.997zm-1.111.389a7.72 7.72 0 0 1-1.75.205h-.002v1.253c.662 0 1.339-.08 2.028-.236l-.276-1.221zm-1.752.204c-.59 0-1.076-.028-1.464-.08l-.168 1.241a12.45 12.45 0 0 0 1.631.092v-1.253zm-1.463-.08a5.721 5.721 0 0 1-1.135-.275l-.417 1.181c.455.16.917.273 1.384.335l.168-1.241zm-1.13-.273a3.324 3.324 0 0 1-.911-.483l.009.006-.762.994a4.54 4.54 0 0 0 1.238.66l.427-1.177zm-.896-.472a2.017 2.017 0 0 1-.539-.675l-.005-.012-1.12.56c.22.441.514.815.887 1.11l.777-.982zm-.543-.684c-.131-.267-.211-.61-.211-1.05h-1.253c0 .588.105 1.129.34 1.605l1.123-.556zm-.21-1.051c0-.44.08-.829.23-1.176l-1.149-.499a4.096 4.096 0 0 0-.334 1.634v.043-.002h1.253zm.23-1.175c.158-.364.351-.632.57-.827l-.834-.936a3.57 3.57 0 0 0-.885 1.264l1.149.499zm.57-.828c.674-.6 1.7-.947 3.179-.947v-1.253c-1.659 0-3.03.39-4.013 1.266l.834.935zm3.179-.947c.664 0 1.29.126 1.884.378l.489-1.154a5.918 5.918 0 0 0-2.35-.478h-.025.001v1.253zm1.878.375c.555.242.913.584 1.125 1.021l1.126-.547c-.359-.739-.958-1.276-1.75-1.622l-.501 1.149zm1.126 1.024c.117.237.179.505.179.817h1.253c0-.487-.101-.947-.31-1.371l-1.123.554zm.181.772-.073 1.009 1.25.091.073-1.009-1.25-.091zm.555.428-4.96-.024-.007 1.253 4.96.024.007-1.253zm-5.569.762c.147.555.504.976 1.007 1.26l.616-1.091c-.248-.14-.362-.302-.412-.488l-1.211.319zm1.009 1.262c.509.284 1.144.397 1.853.397v-1.252c-.595 0-.99-.099-1.241-.239l-.611 1.094zm1.853.397c.762 0 1.599-.206 2.499-.58l-.482-1.156c-.805.335-1.474.484-2.016.484v1.252zm2.257-.532h.331v-1.252h-.33v1.252zm-.294-.673-.116 1.554 1.25.093.116-1.553-1.25-.093z"/></symbol><symbol id="up-arrow" viewBox="0 0 32 32"><path d="M16.905 1.747c-.064-.322-.386-.515-.644-.708-.386-.322-.772-.579-1.094-.901-.193-.193-.515-.193-.644.064-.322.708-.644 1.416-.965 2.188-.129.322.322.644.515.257.322-.515.644-1.03.901-1.609.257.193.451.386.708.579s.579.515.965.515c.193.064.322-.129.257-.386zm-3.99 2.767c-.257.257-.515.579-.644.901-.193.386-.386.837-.064 1.223.064.129.322.129.386 0 .193-.257.129-.515.257-.837.064-.322.193-.644.451-.965.129-.257-.129-.579-.386-.322zm-1.802 3.991c-.064.579-.322 1.094-.579 1.609-.193.386-.579.708-.579 1.223 0 .257.257.451.515.257.386-.257.515-.772.708-1.223a4.624 4.624 0 0 0 .386-1.867c0-.258-.386-.258-.451 0zm1.93 3.218c-.386.064-.772.257-1.223.322-.386.064-.772.064-1.159.064-.322 0-.322.515 0 .515.837 0 1.995.129 2.639-.386a.296.296 0 0 0-.257-.515zm6.115-7.144c-.193-.257-.386-.515-.644-.772-.193-.193-.451.064-.257.257.193.257.386.579.579.901.129.257.322.579.644.644a.276.276 0 0 0 .257-.257c-.064-.322-.386-.579-.579-.772zm3.025 4.055c-.451-.772-1.223-1.352-1.995-1.673-.193-.064-.322.193-.193.257.708.451 1.159 1.094 1.545 1.802.193.451.837.064.644-.386zm.837 2.381c0-.064-.064-.064 0 0-.064-.193-.129-.322-.257-.515s-.515-.064-.386.193c.064.129.064.257.129.386-.064.064-.064.129-.129.193v.064c-.064 0-.064.064-.193.064-.386 0-.837-.129-1.223-.193-.644-.129-.901.772-.257.965.837.257 2.446.515 2.51-.772 0-.193-.064-.322-.193-.386zm-10.041 2.51c-.386.193-.708.515-.965.901-.193.322-.386.837-.257 1.223.129.193.451.193.515 0 .129-.257.129-.644.193-.901.129-.322.386-.644.708-.772.322-.193.064-.515-.193-.451zm-1.802 4.313c-.644.901-1.223 1.802-1.545 2.832-.193.451.579.708.772.193a15.09 15.09 0 0 1 1.223-2.768c.064-.322-.322-.515-.451-.258zm-2.446 5.664c-.257.708-.579 1.352-.901 2.06-.257.579-.644 1.223-.579 1.867 0 .257.386.386.515.129.322-.515.451-1.159.644-1.738.257-.708.515-1.416.644-2.188.064-.258-.258-.322-.322-.129zm.129 6.436c-.451.064-.837.515-1.223.708-.257.129-.579.257-.901.451-.064-.386-.064-.837-.064-1.223 0-.257-.386-.257-.451 0-.064.515 0 1.094-.129 1.673-.064.322.257.579.515.386.451-.193.901-.386 1.352-.644.451-.193 1.094-.515 1.159-1.03.129-.193-.064-.386-.257-.322zm3.411-2.767c-.257.129-.451.322-.708.515-.322.193-.708.386-1.03.579-.257.129-.064.515.257.386.644-.257 1.48-.515 1.867-1.094a.284.284 0 0 0-.386-.386zm3.733-3.541c-.193.257-.386.515-.644.772a5.593 5.593 0 0 1-1.03.644c-.322.193-.064.579.257.451.708-.322 1.673-.708 1.931-1.545.129-.257-.257-.579-.515-.322zm3.025 2.639c-.064-.386-.45-.772-.708-1.094-.386-.386-.772-.772-1.159-1.094-.193-.193-.515.064-.322.322.322.386.644.708.965 1.094.257.322.451.772.708 1.03.193.257.579 0 .515-.258zm2.639 2.382c-.129-.257-.515-.193-.772-.322s-.45-.45-.644-.708c-.129-.257-.515-.064-.386.257.193.386.386.772.708 1.03.257.193.837.386 1.094.064.064-.129.064-.257 0-.322zM24.5 31.29a23.28 23.28 0 0 0-1.802-.901c-.257-.129-.451.193-.193.322.579.386 1.094.837 1.673 1.159.322.193.708-.386.322-.579zm1.223-2.253c-.129-.322-.257-.708-.579-.837a.284.284 0 0 0-.386.386l.386.579c.193.322.257.644.322 1.03 0 .257.451.322.451 0 0-.386-.064-.772-.193-1.159zM24.5 26.269l-.386-1.159c-.129-.386-.129-.837-.129-1.223-.064-.451-.644-.451-.644 0-.064.837.45 1.867.837 2.574.064.193.386 0 .322-.193zm-1.738-4.956a17.931 17.931 0 0 1-.386-1.03c-.129-.322-.129-.708-.193-1.03s-.579-.322-.644 0c-.193.772.451 1.673.837 2.317.129.258.515 0 .386-.257zm-1.351-4.569-.386-.966c-.129-.322-.129-.708-.193-1.03-.064-.451-.708-.322-.772.129-.064.772.451 1.609.837 2.253.193.257.644-.064.515-.386zm-2.382-5.021c-.129 0-.322.129-.322.322 0 .257.193.451.257.644.064.257.064.515.129.772 0 .322.515.322.515 0 .064-.579.129-1.673-.579-1.738z"/></symbol></defs></svg>