<svg xmlns="http://www.w3.org/2000/svg" xml:space="preserve" width="800" height="800" viewBox="0 0 304.269 304.27">
  <path d="M160.743 16.608c-.612-3.06-3.672-4.896-6.12-6.732-3.672-3.06-7.344-5.508-10.404-8.568-1.836-1.836-4.896-1.836-6.12.612-3.06 6.732-6.12 13.464-9.18 20.808-1.224 3.06 3.06 6.12 4.896 2.448 3.06-4.896 6.12-9.792 8.568-15.3 2.448 1.836 4.284 3.672 6.732 5.508s5.508 4.896 9.18 4.896c1.835.613 3.059-1.223 2.448-3.672zM122.798 42.925c-2.448 2.448-4.896 5.508-6.12 8.568-1.836 3.672-3.672 7.956-.612 11.628.612 1.224 3.06 1.224 3.672 0 1.836-2.448 1.224-4.896 2.448-7.956.612-3.06 1.836-6.12 4.284-9.18 1.224-2.448-1.223-5.508-3.672-3.06zM105.663 80.869c-.612 5.508-3.06 10.404-5.508 15.3-1.836 3.672-5.508 6.732-5.508 11.628 0 2.448 2.448 4.284 4.896 2.448 3.672-2.448 4.896-7.344 6.732-11.628 2.448-5.508 3.672-11.628 3.672-17.748-.001-2.449-3.673-2.449-4.284 0zM124.022 111.469c-3.672.612-7.344 2.448-11.628 3.06-3.672.612-7.344.612-11.016.612-3.06 0-3.06 4.896 0 4.896 7.956 0 18.972 1.224 25.092-3.672 2.448-2.448 0-5.509-2.448-4.896zM182.163 43.537c-1.836-2.448-3.672-4.896-6.12-7.344-1.836-1.836-4.284.612-2.448 2.448 1.836 2.448 3.672 5.508 5.508 8.568 1.225 2.448 3.061 5.508 6.12 6.12 1.225 0 2.448-1.224 2.448-2.448-.613-3.06-3.672-5.508-5.508-7.344zM210.926 82.093c-4.284-7.344-11.628-12.852-18.972-15.912-1.836-.612-3.061 1.836-1.836 2.448 6.731 4.284 11.016 10.404 14.688 17.136 1.836 4.284 7.956.611 6.12-3.672zM218.882 104.737c0-.612-.612-.612 0 0-.612-1.836-1.224-3.06-2.448-4.896-1.224-1.836-4.896-.612-3.672 1.836.612 1.224.612 2.448 1.225 3.672-.612.612-.612 1.224-1.225 1.836v.612c-.611 0-.611.612-1.836.612-3.672 0-7.956-1.224-11.628-1.836-6.12-1.224-8.568 7.344-2.448 9.18 7.956 2.448 23.256 4.896 23.868-7.344 0-1.836-.612-3.06-1.836-3.672zM123.411 128.604c-3.672 1.836-6.732 4.896-9.18 8.568-1.836 3.06-3.672 7.956-2.448 11.628 1.224 1.836 4.284 1.836 4.896 0 1.224-2.448 1.224-6.12 1.836-8.568 1.224-3.06 3.672-6.12 6.732-7.344 3.06-1.835.611-4.895-1.836-4.284zM106.274 169.608c-6.12 8.568-11.628 17.136-14.688 26.928-1.836 4.284 5.508 6.732 7.344 1.837 3.06-9.181 6.732-17.748 11.628-26.316.612-3.061-3.059-4.897-4.284-2.449zM83.019 223.465c-2.448 6.731-5.508 12.852-8.568 19.584-2.448 5.508-6.12 11.628-5.508 17.748 0 2.447 3.672 3.672 4.896 1.224 3.06-4.896 4.284-11.016 6.12-16.524 2.448-6.731 4.896-13.464 6.12-20.808.611-2.449-2.449-3.06-3.06-1.224zM84.243 284.665c-4.284.611-7.956 4.896-11.628 6.731-2.448 1.224-5.508 2.448-8.568 4.284-.612-3.672-.612-7.956-.612-11.628 0-2.448-3.672-2.448-4.284 0-.612 4.896 0 10.404-1.224 15.912-.612 3.06 2.448 5.508 4.896 3.672 4.284-1.836 8.568-3.672 12.852-6.12 4.284-1.836 10.404-4.896 11.016-9.792 1.224-1.835-.612-3.671-2.448-3.059zM116.678 258.349c-2.448 1.224-4.284 3.06-6.732 4.896-3.06 1.837-6.732 3.673-9.792 5.509-2.448 1.224-.612 4.896 2.448 3.672 6.12-2.448 14.076-4.896 17.748-10.404 1.224-2.45-1.224-4.897-3.672-3.673zM152.174 224.688c-1.836 2.448-3.672 4.896-6.12 7.344-3.06 2.448-6.12 4.284-9.792 6.12-3.06 1.836-.612 5.508 2.448 4.284 6.732-3.06 15.912-6.731 18.36-14.688 1.224-2.447-2.447-5.508-4.896-3.06zM180.938 249.78c-.611-3.672-4.283-7.344-6.731-10.403-3.672-3.672-7.344-7.345-11.017-10.404-1.836-1.836-4.896.612-3.06 3.06 3.06 3.672 6.12 6.732 9.18 10.404 2.448 3.06 4.284 7.344 6.732 9.792 1.836 2.448 5.508 0 4.896-2.449zM206.031 272.425c-1.225-2.448-4.896-1.836-7.345-3.061-2.447-1.224-4.283-4.283-6.119-6.731-1.225-2.448-4.896-.612-3.673 2.448 1.836 3.672 3.673 7.344 6.732 9.792 2.448 1.836 7.956 3.672 10.404.611.612-1.223.612-2.448.001-3.059zM232.958 297.517c-5.508-3.06-11.628-6.12-17.136-8.568-2.448-1.224-4.284 1.836-1.836 3.061 5.508 3.672 10.403 7.956 15.912 11.016 3.06 1.834 6.732-3.673 3.06-5.509zM244.586 276.097c-1.224-3.061-2.448-6.732-5.508-7.956-2.448-1.224-4.896 1.224-3.672 3.672l3.672 5.508c1.836 3.061 2.448 6.12 3.06 9.792 0 2.448 4.284 3.061 4.284 0 0-3.673-.612-7.344-1.836-11.016zM232.958 249.78l-3.672-11.016c-1.225-3.672-1.225-7.956-1.225-11.628-.611-4.284-6.119-4.284-6.119 0-.612 7.956 4.283 17.748 7.956 24.479.612 1.837 3.673.001 3.06-1.835zM216.434 202.656c-1.224-3.06-2.447-6.12-3.672-9.792-1.224-3.06-1.224-6.731-1.836-9.792-.611-3.06-5.508-3.06-6.12 0-1.836 7.345 4.284 15.912 7.956 22.032 1.225 2.449 4.897 0 3.672-2.448zM203.583 159.205l-3.672-9.181c-1.225-3.06-1.225-6.732-1.836-9.792-.612-4.284-6.732-3.06-7.345 1.224-.611 7.344 4.284 15.3 7.956 21.42 1.836 2.448 6.12-.611 4.897-3.671zM180.938 111.469c-1.224 0-3.06 1.224-3.06 3.06 0 2.448 1.836 4.284 2.448 6.12.611 2.448.611 4.896 1.224 7.344 0 3.06 4.896 3.06 4.896 0 .612-5.509 1.224-15.912-5.508-16.524z"/>
</svg>
